<svg xmlns="http://www.w3.org/2000/svg" viewBox="0 0 1200 820" role="img" aria-labelledby="title desc">
  <title id="title">Premium romantic image placeholder</title>
  <desc id="desc">A warm abstract romantic placeholder with soft light and heart details.</desc>
  <defs>
    <linearGradient id="bg" x1="0" y1="0" x2="1" y2="1">
      <stop offset="0" stop-color="#ffd6df"/>
      <stop offset=".48" stop-color="#f36f94"/>
      <stop offset="1" stop-color="#24142f"/>
    </linearGradient>
    <radialGradient id="glow" cx=".35" cy=".24" r=".62">
      <stop offset="0" stop-color="#fff7d7" stop-opacity=".96"/>
      <stop offset=".44" stop-color="#ffd1de" stop-opacity=".38"/>
      <stop offset="1" stop-color="#ffffff" stop-opacity="0"/>
    </radialGradient>
    <filter id="shadow" x="-20%" y="-20%" width="140%" height="140%">
      <feDropShadow dx="0" dy="26" stdDeviation="28" flood-color="#4d1730" flood-opacity=".28"/>
    </filter>
  </defs>
  <rect width="1200" height="820" fill="url(#bg)"/>
  <rect width="1200" height="820" fill="url(#glow)"/>
  <circle cx="920" cy="132" r="176" fill="#ffffff" opacity=".12"/>
  <circle cx="104" cy="682" r="230" fill="#ffb347" opacity=".13"/>
  <g filter="url(#shadow)">
    <path d="M600 575 C404 428 302 339 302 231 C302 145 366 84 450 84 C512 84 564 119 600 172 C636 119 688 84 750 84 C834 84 898 145 898 231 C898 339 796 428 600 575Z" fill="#fff7fb" opacity=".95"/>
    <path d="M600 526 C438 402 356 326 356 238 C356 180 398 138 456 138 C519 138 560 183 600 247 C640 183 681 138 744 138 C802 138 844 180 844 238 C844 326 762 402 600 526Z" fill="#f04778" opacity=".9"/>
  </g>
  <g fill="#fffafc" opacity=".52">
    <circle cx="196" cy="188" r="8"/>
    <circle cx="248" cy="146" r="5"/>
    <circle cx="1016" cy="502" r="7"/>
    <circle cx="972" cy="618" r="4"/>
    <circle cx="776" cy="678" r="6"/>
  </g>
</svg>
